# https://github.com/mikedh/trimesh
v 0.02895000 0.00000000 -0.10200000
v 0.02895000 -0.00363845 -0.10161758
v 0.02895000 -0.00711789 -0.10048705
v 0.02895000 -0.01028624 -0.09865779
v 0.02795000 -0.01611379 -0.10788602
v 0.02785000 -0.01617053 -0.10796836
v 0.02795000 -0.02766703 -0.09091058
v 0.02795000 -0.02830978 -0.08676194
v 0.02785000 -0.02811130 -0.08919095
v 0.02785000 -0.02840946 -0.08676991
v 0.02785000 -0.02776445 -0.09093314
v 0.02785000 -0.02695579 -0.09375393
v 0.02795000 -0.02641973 -0.09491912
v 0.02785000 -0.02651275 -0.09495581
v 0.02795000 -0.02572356 -0.09653571
v 0.02785000 -0.02506500 -0.09806450
v 0.02795000 -0.02459512 -0.09870000
v 0.02785000 -0.02468172 -0.09875000
v 0.02795000 -0.02223309 -0.10217059
v 0.02785000 -0.02249051 -0.10200506
v 0.02785000 -0.02231137 -0.10223281
v 0.02785000 -0.01945349 -0.10532814
v 0.02795000 -0.01938523 -0.10525507
v 0.02795000 -0.01911581 -0.10550347
v 0.02785000 -0.02841026 -0.08675000
v 0.02795000 -0.02831026 -0.08675000
v 0.02795000 -0.01219599 -0.11014796
v 0.02785000 -0.01223893 -0.11023827
v 0.02785000 -0.01144832 -0.11059954
v 0.02795000 -0.00828180 -0.11166564
v 0.02785000 -0.00831096 -0.11176129
v 0.02785000 -0.00699634 -0.11212791
v 0.02795000 -0.00418664 -0.11258972
v 0.02785000 0.00235351 -0.11290266
v 0.02795000 0.00418664 -0.11258972
v 0.02795000 0.00000000 -0.11290000
v 0.02785000 -0.00420138 -0.11268862
v 0.02785000 -0.00235351 -0.11290266
v 0.02785000 0.00000000 -0.11300000
v 0.02785000 0.01223893 -0.11023827
v 0.02795000 0.01219599 -0.11014796
v 0.02785000 0.01144832 -0.11059954
v 0.02795000 0.00828180 -0.11166564
v 0.02785000 0.00420138 -0.11268862
v 0.02785000 0.00699634 -0.11212791
v 0.02785000 0.00831096 -0.11176129
v 0.02785000 -0.02840946 -0.08223009
v 0.02785000 -0.02841026 -0.08225000
v 0.02795000 -0.02830978 -0.08223806
v 0.02795000 -0.02831026 -0.08225000
v 0.02795000 -0.02766703 -0.07808942
v 0.02785000 -0.02811130 -0.07980905
v 0.02785000 -0.02776445 -0.07806686
v 0.02785000 0.01617053 -0.10796836
v 0.02795000 0.01611379 -0.10788602
v 0.02785000 0.01945349 -0.10532814
v 0.02795000 0.01938523 -0.10525507
v 0.02795000 0.01990804 -0.10475413
v 0.02785000 0.02231137 -0.10223281
v 0.02795000 0.02223309 -0.10217059
v 0.02785000 0.02249051 -0.10200506
v 0.02795000 0.02459512 -0.09870000
v 0.02785000 0.02468172 -0.09875000
v 0.02785000 0.02506500 -0.09806450
v 0.02795000 0.02641973 -0.09491912
v 0.02785000 0.02651275 -0.09495581
v 0.02785000 0.02695579 -0.09375393
v 0.02795000 0.02766703 -0.09091058
v 0.02785000 0.02840946 -0.08676991
v 0.02795000 0.02830978 -0.08676194
v 0.02785000 0.02811130 -0.08919095
v 0.02785000 0.02776445 -0.09093314
v 0.02785000 0.02841026 -0.08675000
v 0.02785000 0.02840946 -0.08223009
v 0.02795000 0.02830978 -0.08223806
v 0.02785000 0.02841026 -0.08225000
v 0.02785000 0.02811130 -0.07980905
v 0.02795000 0.02766703 -0.07808942
v 0.02785000 0.02776445 -0.07806686
v 0.01900000 0.02795808 -0.09052543
v 0.01900000 -0.02795808 -0.09052543
v 0.00900000 -0.02795808 -0.09052543
v 0.00900000 0.02795808 -0.09052543
v 0.03195000 0.01152872 -0.05843588
v 0.03195000 0.01058645 -0.05803914
v 0.03195000 0.00846020 -0.05728465
v 0.03195000 0.00628092 -0.05670072
v 0.03195000 0.00406229 -0.05629100
v 0.03195000 0.00181819 -0.05605806
v 0.03195000 -0.00043729 -0.05600335
v 0.03195000 -0.00269004 -0.05612724
v 0.03195000 -0.00267260 -0.06419957
v 0.03195000 -0.00358710 -0.05725330
v 0.03195000 0.01672987 -0.06269721
v 0.03195000 -0.00355919 -0.05685518
v 0.03195000 -0.00307185 -0.05624343
v 0.03195000 -0.00337780 -0.05649968
v 0.03195000 0.01144810 -0.06862161
v 0.03195000 0.01182607 -0.06863482
v 0.03195000 0.01218193 -0.06850672
v 0.03195000 -0.00255322 -0.06455845
v 0.03195000 0.01692542 -0.06193992
v 0.03195000 0.01678858 -0.06156502
v 0.03195000 0.01246475 -0.06825562
v 0.03195000 -0.00197515 -0.06502486
v 0.03195000 -0.00230909 -0.06484731
v 0.03195000 0.01690475 -0.06233848
v 0.03195000 0.01665307 -0.06139092
v -0.01700000 -0.02837180 -0.08179979
v -0.01700000 -0.02841657 -0.08667915
v -0.01700000 -0.02762834 -0.09149462
v -0.01530000 0.02814250 -0.08900000
v -0.01700000 0.02762834 -0.09149462
v -0.01700000 0.02841657 -0.08667915
v -0.01700000 0.02837180 -0.08179979
v -0.00589586 -0.03043417 -0.07150000
v -0.00036688 -0.03099783 -0.07150000
v 0.00517389 -0.03056519 -0.07150000
v 0.03098307 0.00102420 -0.03950000
v 0.03066804 -0.00452450 -0.03950000
v 0.00517389 -0.03056519 -0.03950000
v -0.00036688 -0.03099783 -0.03950000
v -0.00589586 -0.03043417 -0.03950000
v 0.00314403 0.03084015 -0.03950000
v 0.00860022 0.02978315 -0.03950000
v -0.00241322 0.03090593 -0.03950000
v -0.01123534 -0.02889233 -0.03950000
v -0.01621371 -0.02642188 -0.03950000
v -0.02067096 -0.02310220 -0.03950000
v -0.02446382 -0.01903999 -0.03950000
v -0.02747040 -0.01436583 -0.03950000
v -0.02959406 -0.00922993 -0.03950000
v -0.03076654 -0.00379738 -0.03950000
v -0.03095016 0.00175722 -0.03950000
v -0.03013901 0.00725535 -0.03950000
v -0.02835917 0.01252028 -0.03950000
v -0.02566785 0.01738280 -0.03950000
v -0.01311891 0.02808726 -0.03950000
v -0.00789290 0.02997836 -0.03950000
v -0.00789290 0.02997836 -0.07150000
v -0.00241322 0.03090593 -0.07150000
v 0.00314403 0.03084015 -0.07150000
v -0.03013901 0.00725535 -0.05350000
v -0.03095016 0.00175722 -0.05350000
v -0.03076654 -0.00379738 -0.05350000
v -0.02959406 -0.00922993 -0.05350000
v 0.01237437 0.01237437 0.00000000
v 0.01467673 0.00953118 0.00000000
v 0.01633766 0.00627144 0.00000000
v 0.01728455 0.00273760 0.00000000
v 0.01747602 -0.00091588 0.00000000
v 0.01690370 -0.00452933 0.00000000
v 0.01559261 -0.00794483 0.00000000
v 0.01360005 -0.01101311 0.00000000
v 0.01101311 -0.01360005 0.00000000
v 0.00794483 -0.01559261 0.00000000
v 0.00452933 -0.01690370 0.00000000
v 0.00091588 -0.01747602 0.00000000
v -0.00273760 -0.01728455 0.00000000
v -0.00627144 -0.01633766 0.00000000
v -0.00953118 -0.01467673 0.00000000
v -0.01237437 -0.01237437 0.00000000
v 0.00273760 0.01728455 0.00000000
v -0.00091588 0.01747602 0.00000000
v 0.00953118 0.01467673 0.00000000
v -0.01467673 -0.00953118 0.00000000
v -0.01633766 -0.00627144 0.00000000
v -0.01728455 -0.00273760 0.00000000
v -0.01690370 0.00452933 0.00000000
v -0.01559261 0.00794483 0.00000000
v -0.01412151 0.01033601 0.00000000
v -0.01360005 0.01101311 0.00000000
v -0.00452933 0.01690370 0.00000000
v -0.00794483 0.01559261 0.00000000
v -0.01101311 0.01360005 0.00000000
v 0.00627144 0.01633766 0.00000000
v -0.01747602 0.00091588 0.00000000
v -0.02793058 -0.00514224 -0.00100000
v -0.02802893 -0.00516034 -0.00110000
v -0.02409650 0.01503059 -0.00100000
v -0.02161747 0.01841860 -0.00100000
v -0.02319469 0.01656069 -0.00110000
v -0.02169359 0.01848345 -0.00110000
v -0.02418135 0.01508351 -0.00110000
v -0.02560414 0.01251710 -0.00110000
v -0.02604900 0.01131414 -0.00100000
v -0.02614072 0.01135397 -0.00110000
v -0.02669984 0.00967878 -0.00100000
v -0.02731518 0.00813208 -0.00110000
v -0.02743229 0.00735046 -0.00100000
v -0.02752889 0.00737634 -0.00110000
v -0.02821616 0.00322617 -0.00100000
v -0.02828114 0.00352524 -0.00110000
v -0.02831552 0.00323753 -0.00110000
v -0.02848342 -0.00097203 -0.00110000
v -0.02838348 -0.00096862 -0.00100000
v -0.02836862 -0.00133477 -0.00100000
v -0.02168008 0.01849809 -0.00110000
v -0.02160936 0.01842738 -0.00100000
v -0.02675971 -0.00951198 -0.00100000
v -0.02685394 -0.00954548 -0.00110000
v -0.02655035 -0.01035998 -0.00110000
v -0.02506512 -0.01335289 -0.00100000
v -0.02515338 -0.01339991 -0.00110000
v -0.02448304 -0.01458872 -0.00110000
v -0.02282283 -0.01690203 -0.00100000
v -0.01841953 -0.02174790 -0.00110000
v -0.01690203 -0.02282283 -0.00100000
v -0.02008183 -0.02008183 -0.00100000
v -0.02290319 -0.01696154 -0.00110000
v -0.02174790 -0.01841953 -0.00110000
v -0.02015254 -0.02015254 -0.00110000
v -0.00954548 -0.02685394 -0.00110000
v -0.00951198 -0.02675971 -0.00100000
v -0.01035998 -0.02655035 -0.00110000
v -0.01335289 -0.02506512 -0.00100000
v -0.01696154 -0.02290319 -0.00110000
v -0.01458872 -0.02448304 -0.00110000
v -0.01339991 -0.02515338 -0.00110000
v -0.01848345 0.02169359 -0.00110000
v -0.01849809 0.02168008 -0.00110000
v -0.01841860 0.02161747 -0.00100000
v -0.01842738 0.02160936 -0.00100000
v 0.00514224 0.02793058 -0.00100000
v 0.00516034 0.02802893 -0.00110000
v 0.00469031 0.02801002 -0.00100000
v 0.00097203 0.02848342 -0.00110000
v 0.00096862 0.02838348 -0.00100000
v -0.00323753 0.02831552 -0.00110000
v -0.00322617 0.02821616 -0.00100000
v -0.00352524 0.02828114 -0.00110000
v -0.00735046 0.02743229 -0.00100000
v -0.00737634 0.02752889 -0.00110000
v -0.00813208 0.02731518 -0.00110000
v -0.00967878 0.02669984 -0.00100000
v -0.01135397 0.02614072 -0.00110000
v -0.01131414 0.02604900 -0.00100000
v -0.01251710 0.02560414 -0.00110000
v -0.01503059 0.02409650 -0.00100000
v -0.01656069 0.02319469 -0.00110000
v -0.01508351 0.02418135 -0.00110000
v -0.00516034 -0.02802893 -0.00110000
v -0.00514224 -0.02793058 -0.00100000
v -0.00097203 -0.02848342 -0.00110000
v -0.00096862 -0.02838348 -0.00100000
v -0.00024472 -0.02839895 -0.00100000
v 0.00323753 -0.02831552 -0.00110000
v 0.00322617 -0.02821616 -0.00100000
v 0.00352524 -0.02828114 -0.00110000
v 0.00735046 -0.02743229 -0.00100000
v 0.00737634 -0.02752889 -0.00110000
v 0.00813208 -0.02731518 -0.00110000
v 0.01131414 -0.02604900 -0.00100000
v 0.01135397 -0.02614072 -0.00110000
v 0.01251710 -0.02560414 -0.00110000
v 0.01503059 -0.02409650 -0.00100000
v 0.01848345 -0.02169359 -0.00110000
v 0.01841860 -0.02161747 -0.00100000
v 0.01656069 -0.02319469 -0.00110000
v 0.01508351 -0.02418135 -0.00110000
v 0.01849809 -0.02168008 -0.00110000
v 0.00951198 0.02675971 -0.00100000
v 0.00954548 0.02685394 -0.00110000
v 0.02675971 0.00951198 -0.00100000
v 0.02685394 0.00954548 -0.00110000
v 0.02655035 0.01035998 -0.00110000
v 0.02506512 0.01335289 -0.00100000
v 0.02515338 0.01339991 -0.00110000
v 0.02448304 0.01458872 -0.00110000
v 0.02282283 0.01690203 -0.00100000
v 0.01841953 0.02174790 -0.00110000
v 0.01690203 0.02282283 -0.00100000
v 0.02008183 0.02008183 -0.00100000
v 0.02290319 0.01696154 -0.00110000
v 0.02174790 0.01841953 -0.00110000
v 0.02015254 0.02015254 -0.00110000
v 0.01035998 0.02655035 -0.00110000
v 0.01335289 0.02506512 -0.00100000
v 0.01696154 0.02290319 -0.00110000
v 0.01458872 0.02448304 -0.00110000
v 0.01339991 0.02515338 -0.00110000
v 0.02169359 -0.01848345 -0.00110000
v 0.02161747 -0.01841860 -0.00100000
v 0.02168008 -0.01849809 -0.00110000
v 0.02319469 -0.01656069 -0.00110000
v 0.02560414 -0.01251710 -0.00110000
v 0.02604900 -0.01131414 -0.00100000
v 0.02409650 -0.01503059 -0.00100000
v 0.02418135 -0.01508351 -0.00110000
v 0.02614072 -0.01135397 -0.00110000
v 0.02731518 -0.00813208 -0.00110000
v 0.02743229 -0.00735046 -0.00100000
v 0.02752889 -0.00737634 -0.00110000
v 0.02821616 -0.00322617 -0.00100000
v 0.02828114 -0.00352524 -0.00110000
v 0.02836862 0.00133477 -0.00100000
v 0.02838348 0.00096862 -0.00100000
v 0.02848342 0.00097203 -0.00110000
v 0.02831552 -0.00323753 -0.00110000
v 0.02801002 0.00469031 -0.00100000
v 0.02802893 0.00516034 -0.00110000
v 0.02793058 0.00514224 -0.00100000
v -0.02064653 -0.01750000 -0.12927169
v -0.02064653 0.01750000 -0.12927169
v -0.02042476 0.01750000 -0.12956199
v -0.02042476 -0.01750000 -0.12956199
v -0.02011352 0.01750000 -0.12975328
v -0.02011352 -0.01750000 -0.12975328
v -0.01975435 0.01750000 -0.12982000
v -0.01975435 -0.01750000 -0.12982000
v -0.02724073 -0.01750000 -0.12005682
v -0.02724073 0.01750000 -0.12005682
v -0.02716067 0.01750000 -0.12044887
v -0.02716067 -0.01750000 -0.12044887
v -0.02693332 0.01750000 -0.12077815
v -0.02693332 -0.01750000 -0.12077815
v -0.02724073 0.01750000 -0.10523421
v -0.02724073 -0.01750000 -0.10523421
v -0.00955000 0.01750000 -0.12982000
v -0.00955000 -0.01750000 -0.12982000
v -0.02130000 0.02575599 -0.09073529
v -0.02130000 0.02492296 -0.05550000
v -0.02130000 0.02635259 -0.08170876
v -0.02130000 0.02649897 -0.08473381
v -0.02130000 0.02629923 -0.08775582
f 311 145 144
f 314 110 311
f 312 311 144
f 325 312 324
f 324 114 325
f 325 114 113
f 111 110 314
f 116 110 117
f 123 213 127
f 110 116 123
f 319 80 72
f 309 113 83
f 138 234 139
f 80 83 141
f 145 311 146
f 132 179 133
f 318 311 110
f 318 130 131
f 131 132 318
f 307 113 309
f 307 305 113
f 321 325 113
f 324 312 317
f 260 52 259
f 260 255 52
f 127 128 109
f 110 123 109
f 109 123 127
f 109 318 110
f 130 318 109
f 219 128 127
f 244 123 122
f 122 247 244
f 121 247 122
f 242 123 244
f 213 123 242
f 259 52 257
f 52 261 257
f 182 322 137
f 324 317 137
f 227 124 126
f 138 139 115
f 115 139 114
f 115 114 324
f 233 139 234
f 114 139 140
f 140 141 114
f 114 141 112
f 112 141 83
f 113 114 112
f 112 83 113
f 113 315 313
f 313 321 113
f 312 325 313
f 325 321 313
f 113 305 304
f 304 315 113
f 143 312 144
f 121 251 249
f 249 247 121
f 130 109 129
f 129 109 128
f 129 128 217
f 217 128 218
f 128 219 218
f 127 213 215
f 215 219 127
f 285 282 51
f 51 289 285
f 286 289 51
f 51 290 286
f 95 120 51
f 291 290 51
f 120 293 51
f 51 293 291
f 117 110 82
f 110 111 82
f 7 12 13
f 67 319 72
f 40 319 54
f 56 54 319
f 57 54 56
f 324 137 323
f 323 137 322
f 323 322 138
f 323 115 324
f 138 115 323
f 138 322 238
f 124 227 225
f 225 125 124
f 126 139 231
f 139 233 231
f 77 280 279
f 281 280 77
f 102 70 75
f 68 67 72
f 65 67 68
f 72 80 71
f 71 68 72
f 70 68 71
f 80 141 71
f 102 268 266
f 266 265 102
f 269 268 102
f 301 298 108
f 119 85 298
f 131 130 205
f 105 3 2
f 53 261 52
f 52 51 53
f 117 82 81
f 14 13 12
f 14 320 16
f 14 12 320
f 29 320 31
f 320 32 31
f 61 62 60
f 65 62 64
f 40 54 55
f 55 54 57
f 57 100 55
f 183 322 182
f 220 240 322
f 322 221 220
f 322 240 241
f 241 238 322
f 236 234 138
f 138 238 236
f 229 227 126
f 126 231 229
f 276 77 271
f 77 279 271
f 142 71 141
f 276 275 78
f 78 275 274
f 274 269 78
f 78 269 102
f 102 75 78
f 78 75 77
f 298 85 84
f 84 108 298
f 301 108 103
f 103 265 301
f 102 265 103
f 202 132 131
f 310 82 111
f 111 308 310
f 182 137 184
f 137 185 184
f 136 185 137
f 317 135 136
f 136 137 317
f 134 133 195
f 195 194 134
f 195 133 179
f 193 135 134
f 134 194 193
f 193 191 135
f 295 293 120
f 295 120 95
f 98 105 2
f 57 56 58
f 60 62 94
f 261 53 284
f 284 51 282
f 284 53 51
f 49 51 52
f 95 51 49
f 49 93 95
f 117 81 9
f 7 13 92
f 92 13 101
f 320 22 21
f 21 20 320
f 28 320 29
f 44 34 319
f 319 45 44
f 30 31 32
f 32 33 30
f 29 31 30
f 2 3 30
f 30 33 2
f 37 32 320
f 37 33 32
f 59 56 319
f 319 61 59
f 59 58 56
f 59 61 60
f 60 58 59
f 66 67 65
f 65 64 66
f 319 67 66
f 66 64 319
f 63 61 319
f 319 64 63
f 62 61 63
f 63 64 62
f 198 221 322
f 322 183 198
f 124 125 74
f 74 76 124
f 125 225 74
f 74 225 263
f 263 277 74
f 74 277 281
f 74 281 77
f 77 75 74
f 75 76 74
f 70 71 69
f 71 142 69
f 79 77 276
f 276 78 79
f 79 78 77
f 130 129 212
f 212 211 130
f 210 205 130
f 130 211 210
f 201 179 132
f 132 202 201
f 131 205 204
f 204 202 131
f 306 308 111
f 111 303 306
f 316 111 314
f 316 303 111
f 185 136 187
f 3 105 106
f 6 24 22
f 6 22 320
f 320 28 6
f 104 100 57
f 57 58 104
f 104 58 60
f 60 94 104
f 107 62 65
f 107 94 62
f 65 68 107
f 107 70 102
f 107 68 70
f 8 9 7
f 7 92 8
f 8 92 93
f 93 26 8
f 11 12 7
f 7 9 11
f 11 9 81
f 11 81 320
f 320 12 11
f 25 118 117
f 25 8 26
f 49 48 50
f 50 26 93
f 93 49 50
f 121 48 47
f 47 251 121
f 252 251 47
f 47 254 252
f 255 254 47
f 52 255 47
f 47 49 52
f 47 48 49
f 16 17 15
f 15 14 16
f 13 14 15
f 101 13 15
f 15 17 101
f 18 17 16
f 20 17 18
f 16 320 18
f 320 20 18
f 101 17 19
f 19 106 101
f 20 21 19
f 19 17 20
f 1 36 99
f 99 98 1
f 1 98 2
f 2 33 1
f 33 36 1
f 34 44 35
f 35 36 34
f 35 44 45
f 99 36 35
f 39 320 319
f 319 34 39
f 34 36 39
f 38 36 33
f 33 37 38
f 38 39 36
f 38 37 320
f 320 39 38
f 70 69 73
f 73 69 142
f 90 89 119
f 119 91 90
f 96 119 298
f 96 91 119
f 298 299 96
f 85 119 86
f 119 87 86
f 119 89 88
f 88 87 119
f 207 129 217
f 207 212 129
f 189 187 136
f 135 191 189
f 189 136 135
f 5 106 24
f 24 6 5
f 5 6 28
f 117 9 10
f 10 25 117
f 9 8 10
f 8 25 10
f 24 106 23
f 106 19 23
f 22 24 23
f 23 21 22
f 23 19 21
f 43 100 99
f 99 35 43
f 43 35 45
f 97 96 299
f 299 295 97
f 97 295 95
f 3 106 4
f 4 5 3
f 106 5 4
f 3 5 27
f 27 30 3
f 27 5 28
f 29 30 27
f 27 28 29
f 41 55 100
f 100 43 41
f 40 55 41
f 42 319 40
f 40 41 42
f 42 41 43
f 232 233 234
f 232 231 233
f 268 269 267
f 267 266 268
f 262 277 263
f 263 225 262
f 319 42 46
f 46 42 43
f 46 45 319
f 46 43 45
f 283 282 285
f 283 284 282
f 234 236 235
f 235 232 234
f 230 229 231
f 231 232 230
f 270 269 274
f 270 267 269
f 274 275 270
f 265 266 264
f 266 267 264
f 301 265 264
f 281 277 278
f 277 262 278
f 280 281 278
f 190 189 191
f 191 193 190
f 173 230 232
f 232 235 173
f 285 289 288
f 288 283 285
f 288 289 286
f 154 283 288
f 258 257 261
f 259 257 258
f 294 295 299
f 244 247 246
f 219 215 216
f 216 218 219
f 237 236 238
f 237 235 236
f 227 229 228
f 229 230 228
f 273 275 276
f 273 270 275
f 276 271 273
f 273 147 270
f 272 279 280
f 280 278 272
f 272 271 279
f 272 273 271
f 147 273 272
f 187 189 188
f 189 190 188
f 188 190 169
f 192 193 194
f 192 190 193
f 169 190 192
f 202 204 203
f 203 204 205
f 286 290 287
f 287 288 286
f 287 290 291
f 256 260 259
f 259 258 256
f 255 260 256
f 297 299 298
f 297 294 299
f 267 270 148
f 270 147 148
f 165 272 278
f 147 272 165
f 245 242 244
f 244 246 245
f 247 249 248
f 248 246 247
f 217 218 208
f 218 216 208
f 208 207 217
f 238 241 239
f 239 237 238
f 239 241 240
f 224 262 225
f 230 173 164
f 164 228 230
f 185 187 186
f 187 188 186
f 194 195 196
f 196 192 194
f 174 173 235
f 235 237 174
f 237 239 174
f 174 239 175
f 179 201 200
f 200 201 202
f 202 203 200
f 205 210 206
f 206 203 205
f 206 210 211
f 291 293 292
f 292 287 291
f 293 295 292
f 295 294 292
f 292 294 152
f 152 287 292
f 153 287 152
f 154 288 153
f 288 287 153
f 253 254 255
f 255 256 253
f 252 254 253
f 155 256 258
f 296 297 298
f 152 294 151
f 294 297 151
f 297 296 151
f 149 264 267
f 267 148 149
f 176 278 262
f 176 165 278
f 242 245 243
f 250 249 251
f 250 248 249
f 250 251 252
f 252 253 250
f 157 248 250
f 250 253 157
f 158 245 246
f 158 248 157
f 246 248 158
f 212 207 209
f 207 208 209
f 211 212 209
f 209 206 211
f 240 220 222
f 222 239 240
f 222 220 221
f 175 239 222
f 226 224 225
f 226 225 227
f 227 228 226
f 180 184 185
f 185 186 180
f 182 184 180
f 197 195 179
f 197 196 195
f 169 192 177
f 192 196 177
f 196 197 177
f 170 188 169
f 170 186 188
f 170 180 186
f 167 200 203
f 157 253 156
f 156 253 256
f 256 155 156
f 301 264 302
f 213 242 214
f 242 243 214
f 214 215 213
f 214 216 215
f 159 243 245
f 245 158 159
f 159 214 243
f 223 222 221
f 175 222 223
f 228 164 163
f 163 226 228
f 224 226 163
f 262 224 163
f 163 176 262
f 181 183 182
f 182 180 181
f 181 198 183
f 179 200 178
f 178 197 179
f 180 170 171
f 172 181 171
f 171 181 180
f 206 209 162
f 162 209 208
f 301 302 300
f 300 298 301
f 300 296 298
f 264 149 150
f 150 302 264
f 150 300 302
f 150 151 296
f 296 300 150
f 198 181 199
f 199 181 172
f 168 177 197
f 197 178 168
f 200 167 168
f 168 178 200
f 206 162 166
f 203 206 166
f 166 167 203
f 161 208 216
f 161 162 208
f 216 214 160
f 160 161 216
f 214 159 160
f 80 319 83
f 83 319 309
f 144 145 133
f 134 144 133
f 145 146 133
f 133 146 132
f 132 146 318
f 318 146 311
f 122 118 121
f 117 118 122
f 122 116 117
f 122 123 116
f 126 141 140
f 140 139 126
f 311 312 313
f 314 311 313
f 143 144 134
f 134 135 143
f 143 317 312
f 143 135 317
f 142 141 126
f 126 124 142
f 320 81 310
f 310 81 82
f 309 319 310
f 319 320 310
f 310 307 309
f 310 308 307
f 307 308 306
f 305 307 306
f 306 304 305
f 306 303 304
f 314 313 316
f 316 313 315
f 304 303 316
f 315 304 316
f 121 118 25
f 25 48 121
f 48 25 50
f 50 25 26
f 73 76 75
f 73 75 70
f 73 142 124
f 124 76 73
f 102 103 97
f 97 84 85
f 95 93 97
f 97 88 89
f 100 104 97
f 97 98 99
f 97 92 101
f 99 100 97
f 108 84 97
f 97 103 108
f 89 90 97
f 105 98 97
f 101 106 97
f 93 92 97
f 97 107 102
f 85 86 97
f 97 106 105
f 97 104 94
f 94 107 97
f 97 90 91
f 91 96 97
f 97 86 87
f 87 88 97
f 284 283 258
f 261 284 258
f 155 258 283
f 155 283 154
f 199 223 221
f 221 198 199
f 199 172 175
f 175 223 199
f 160 158 157
f 154 153 160
f 173 174 160
f 160 155 154
f 160 164 173
f 165 176 160
f 169 177 160
f 160 148 147
f 147 165 160
f 160 170 169
f 160 149 148
f 175 172 160
f 160 174 175
f 160 153 152
f 160 168 167
f 152 151 160
f 167 166 160
f 157 156 160
f 151 150 160
f 160 163 164
f 172 171 160
f 160 156 155
f 160 159 158
f 176 163 160
f 160 171 170
f 177 168 160
f 160 150 149
f 160 166 162
f 162 161 160

